# xmcd
#
# Track frame offsets:
#	150
#	12888
#	24911
#	38029
#	50689
#	65858
#	80144
#	91762
#	104987
#	118177
#	131260
#	145049
#	156922
#	170536
#
# Disc length: 2433 seconds
#
# Revision: 0
# Processed by: cddbd v1.5.2PL0 Copyright (c) Steve Scherf et al.
# Submitted via: FairStars CD Ripper 1.52
#
DISCID=bf097f0e
DTITLE=Big JoeTurner - Roll 'em Pete
DYEAR=2007
DGENRE=R&B
TTITLE0=Roll 'Em Pete
TTITLE1=Honey Hush
TTITLE2=Cherry Red
TTITLE3=Flip Flop And Fly
TTITLE4=Chains Of Love
TTITLE5=Milk And Butter Blues
TTITLE6=Wine-O-Baby Boogie
TTITLE7=Sally Zu-Zazz
TTITLE8=Sunday Morning Blues
TTITLE9=Nobody In My Mind
TTITLE10=Miss Brown Blues
TTITLE11=Blues On Central Avenue
TTITLE12=Johnson And Turner Blues
TTITLE13=Rocks In My Bed
EXTD=
EXTT0=
EXTT1=
EXTT2=
EXTT3=
EXTT4=
EXTT5=
EXTT6=
EXTT7=
EXTT8=
EXTT9=
EXTT10=
EXTT11=
EXTT12=
EXTT13=
PLAYORDER=
